<svg xmlns="http://www.w3.org/2000/svg" aria-hidden="true" style="position:absolute;width:0;height:0;overflow:hidden">
  <defs>
    <symbol id="cart" viewBox="0 0 34 32">
<path d="M30.040 7.039c-0.141-0.169-0.317-0.304-0.516-0.397s-0.416-0.141-0.636-0.141h-19.75l-0.684-3.769c-0.063-0.345-0.245-0.658-0.514-0.883s-0.609-0.348-0.96-0.348h-3.091c-0.398 0-0.779 0.158-1.061 0.439s-0.439 0.663-0.439 1.061c0 0.398 0.158 0.779 0.439 1.061s0.663 0.439 1.061 0.439h1.839l3.114 17.125c0.084 0.455 0.257 0.889 0.509 1.276-0.447 0.523-0.751 1.151-0.884 1.826s-0.090 1.372 0.125 2.025c0.215 0.653 0.595 1.239 1.102 1.703s1.126 0.788 1.796 0.943c0.67 0.155 1.368 0.135 2.027-0.059s1.258-0.554 1.738-1.046c0.48-0.492 0.825-1.1 1.001-1.764s0.179-1.363 0.007-2.028h4.25c-0.209 0.808-0.159 1.66 0.141 2.439s0.836 1.443 1.532 1.902c0.697 0.459 1.519 0.688 2.353 0.656s1.636-0.324 2.296-0.834c0.66-0.511 1.143-1.215 1.383-2.014s0.224-1.653-0.046-2.442c-0.27-0.79-0.779-1.475-1.458-1.96s-1.492-0.747-2.326-0.747h-12.104c-0.117-0-0.23-0.041-0.32-0.116s-0.15-0.179-0.171-0.294l-0.29-1.59h13.898c0.82 0 1.614-0.288 2.243-0.813s1.054-1.255 1.201-2.062l1.52-8.357c0.039-0.216 0.030-0.438-0.026-0.651s-0.158-0.41-0.299-0.578zM13.389 25.5c0 0.198-0.059 0.391-0.169 0.556s-0.266 0.293-0.449 0.368c-0.183 0.076-0.384 0.095-0.578 0.057s-0.372-0.134-0.512-0.274c-0.14-0.14-0.235-0.318-0.274-0.512s-0.019-0.395 0.057-0.578c0.076-0.183 0.204-0.339 0.368-0.449s0.358-0.169 0.556-0.169c0.265 0 0.52 0.105 0.707 0.293s0.293 0.442 0.293 0.707zM24.389 26.5c-0.198 0-0.391-0.058-0.556-0.168s-0.293-0.266-0.368-0.449c-0.076-0.183-0.095-0.384-0.057-0.578s0.134-0.372 0.274-0.512c0.14-0.14 0.318-0.235 0.512-0.274s0.395-0.019 0.578 0.057c0.183 0.076 0.339 0.204 0.449 0.368s0.168 0.358 0.168 0.556c0 0.265-0.105 0.519-0.293 0.707s-0.442 0.293-0.707 0.293zM25.889 16.090c-0.021 0.114-0.081 0.218-0.17 0.293s-0.201 0.116-0.317 0.117h-14.443l-1.272-7h17.405l-1.203 6.59z"></path>
</symbol>
  </defs>
</svg>

